<?xml version="1.0" encoding="utf-8"?>
<svg version="1.1" id="Logo" xmlns="http://www.w3.org/2000/svg" xmlns:xlink="http://www.w3.org/1999/xlink" x="0px" y="0px"
	 viewBox="0 0 248 408" style="enable-background:new 0 0 248 408;" xml:space="preserve">
<g id="Logo_Twitter">
	<path id="white_background" d="M221.95 51.29C222.1 53.46 222.1 55.63 222.1 57.82C222.1 124.55 171.3 201.51 78.41 201.51V201.47C50.97 201.51 24.1 193.65 1 178.83C4.99 179.31 9 179.55 13.02 179.56C35.76 179.58 57.85 171.95 75.74 157.9C54.13 157.49 35.18 143.4 28.56 122.83C36.13 124.29 43.93 123.99 51.36 121.96C27.8 117.2 10.85 96.5 10.85 72.46C10.85 72.24 10.85 72.03 10.85 71.82C17.87 75.73 25.73 77.9 33.77 78.14C11.58 63.31 4.74 33.79 18.14 10.71C43.78 42.26 81.61 61.44 122.22 63.47C118.15 45.93 123.71 27.55 136.83 15.22C157.17 -3.9 189.16 -2.92 208.28 17.41C219.59 15.18 230.43 11.03 240.35 5.15C236.58 16.84 228.69 26.77 218.15 33.08C228.16 31.9 237.94 29.22 247.15 25.13C240.37 35.29 231.83 44.14 221.95 51.29Z" fill="#1D9BF0"/>
</g>
<g id="Logo_Flipped">
	<path id="white_background_2" d="M221.95 356.71C222.1 354.54 222.1 352.37 222.1 350.18C222.1 283.45 171.3 206.49 78.41 206.49V206.53C50.97 206.49 24.1 214.35 1 229.17C4.99 228.69 9 228.45 13.02 228.44C35.76 228.42 57.85 236.05 75.74 250.1C54.13 250.51 35.18 264.6 28.56 285.17C36.13 283.71 43.93 284.01 51.36 286.04C27.8 290.8 10.85 311.5 10.85 335.54C10.85 335.76 10.85 335.97 10.85 336.18C17.87 332.27 25.73 330.1 33.77 329.86C11.58 344.69 4.74 374.21 18.14 397.29C43.78 365.74 81.61 346.56 122.22 344.53C118.15 362.07 123.71 380.45 136.83 392.78C157.17 411.9 189.16 410.92 208.28 390.59C219.59 392.82 230.43 396.97 240.35 402.85C236.58 391.16 228.69 381.23 218.15 374.92C228.16 376.1 237.94 378.78 247.15 382.87C240.37 372.71 231.83 363.86 221.95 356.71Z" fill="#1D9BF0" fill-opacity="0.3"/>
</g>
</svg>
